<mxfile host="65bd71144e">
    <diagram id="4--uADyovsEI3JxTqUd5" name="Page-1">
        <mxGraphModel dx="1400" dy="1075" grid="1" gridSize="10" guides="1" tooltips="1" connect="1" arrows="1" fold="1" page="1" pageScale="1" pageWidth="850" pageHeight="1100" math="0" shadow="0">
            <root>
                <mxCell id="0"/>
                <mxCell id="1" parent="0"/>
                <mxCell id="13" style="edgeStyle=none;html=1;exitX=1;exitY=0.5;exitDx=0;exitDy=0;entryX=0;entryY=0.5;entryDx=0;entryDy=0;" edge="1" parent="1" source="3" target="12">
                    <mxGeometry relative="1" as="geometry"/>
                </mxCell>
                <mxCell id="3" value="&lt;font style=&quot;color: rgb(0, 0, 0);&quot;&gt;&lt;span style=&quot;font-family: Consolas, &amp;quot;Courier New&amp;quot;, monospace; font-size: 14px; white-space-collapse: preserve;&quot;&gt;PhoneService&lt;br&gt;&lt;/span&gt;&lt;span style=&quot;font-family: Consolas, &amp;quot;Courier New&amp;quot;, monospace; font-size: 14px; white-space-collapse: preserve;&quot;&gt;MultipleLines &lt;/span&gt;&lt;span style=&quot;font-family: Consolas, &amp;quot;Courier New&amp;quot;, monospace; font-size: 14px; white-space-collapse: preserve;&quot;&gt;OnlineSecurity &lt;br&gt;&lt;/span&gt;&lt;span style=&quot;font-family: Consolas, &amp;quot;Courier New&amp;quot;, monospace; font-size: 14px; white-space-collapse: preserve;&quot;&gt;OnlineBackup &lt;br&gt;&lt;/span&gt;&lt;span style=&quot;font-family: Consolas, &amp;quot;Courier New&amp;quot;, monospace; font-size: 14px; white-space-collapse: preserve;&quot;&gt;DeviceProtection &lt;br&gt;&lt;/span&gt;&lt;span style=&quot;font-family: Consolas, &amp;quot;Courier New&amp;quot;, monospace; font-size: 14px; white-space-collapse: preserve;&quot;&gt;TechSupport &lt;/span&gt;&lt;/font&gt;&lt;div&gt;&lt;span style=&quot;font-family: Consolas, &amp;quot;Courier New&amp;quot;, monospace; font-size: 14px; white-space-collapse: preserve;&quot;&gt;&lt;font style=&quot;color: rgb(0, 0, 0);&quot;&gt;StreamingTV                            &lt;/font&gt;&lt;/span&gt;&lt;div&gt;&lt;span style=&quot;font-family: Consolas, &amp;quot;Courier New&amp;quot;, monospace; font-size: 14px; white-space-collapse: preserve; background-color: transparent; color: rgb(190, 198, 208);&quot;&gt;&lt;font style=&quot;color: rgb(0, 0, 0);&quot;&gt;StreamingMovies                        &lt;/font&gt;&lt;/span&gt;&lt;/div&gt;&lt;/div&gt;" style="whiteSpace=wrap;html=1;aspect=fixed;align=left;fillColor=default;" vertex="1" parent="1">
                    <mxGeometry x="-390" y="670" width="190" height="190" as="geometry"/>
                </mxCell>
                <mxCell id="5" value="Services" style="text;html=1;align=center;verticalAlign=middle;resizable=0;points=[];autosize=1;strokeColor=none;fillColor=none;" vertex="1" parent="1">
                    <mxGeometry x="-390" y="640" width="70" height="30" as="geometry"/>
                </mxCell>
                <mxCell id="8" value="" style="edgeStyle=none;html=1;" edge="1" parent="1" source="6" target="7">
                    <mxGeometry relative="1" as="geometry"/>
                </mxCell>
                <mxCell id="6" value="PaymentMethod&lt;div&gt;[Mailed chech, Bank transfer (automatic), Electronic check,unknown]&lt;/div&gt;" style="rounded=0;whiteSpace=wrap;html=1;" vertex="1" parent="1">
                    <mxGeometry x="-380" y="1100" width="120" height="100" as="geometry"/>
                </mxCell>
                <mxCell id="7" value="&lt;span style=&quot;font-family: Consolas, &amp;quot;Courier New&amp;quot;, monospace; font-size: 14px; text-align: start; white-space-collapse: preserve;&quot;&gt;&lt;font style=&quot;color: rgb(0, 0, 0);&quot;&gt;PaymentMethod_Electronic check&lt;/font&gt;&lt;/span&gt;" style="whiteSpace=wrap;html=1;rounded=0;" vertex="1" parent="1">
                    <mxGeometry x="-180" y="1090" width="270" height="60" as="geometry"/>
                </mxCell>
                <mxCell id="9" value="&lt;span style=&quot;font-family: Consolas, &amp;quot;Courier New&amp;quot;, monospace; font-size: 14px; text-align: start; white-space-collapse: preserve;&quot;&gt;&lt;font style=&quot;color: rgb(0, 0, 0);&quot;&gt;PaymentMethod_Credit card (automatic)&lt;/font&gt;&lt;/span&gt;" style="whiteSpace=wrap;html=1;rounded=0;" vertex="1" parent="1">
                    <mxGeometry x="-180" y="1020" width="270" height="60" as="geometry"/>
                </mxCell>
                <mxCell id="10" value="&lt;span style=&quot;font-family: Consolas, &amp;quot;Courier New&amp;quot;, monospace; font-size: 14px; text-align: start; white-space-collapse: preserve;&quot;&gt;&lt;font style=&quot;color: rgb(0, 0, 0);&quot;&gt;PaymentMethod_Mailed check&lt;/font&gt;&lt;/span&gt;" style="whiteSpace=wrap;html=1;rounded=0;" vertex="1" parent="1">
                    <mxGeometry x="-180" y="1160" width="270" height="60" as="geometry"/>
                </mxCell>
                <mxCell id="11" value="&lt;span style=&quot;font-family: Consolas, &amp;quot;Courier New&amp;quot;, monospace; font-size: 14px; text-align: start; white-space-collapse: preserve;&quot;&gt;&lt;font style=&quot;color: rgb(0, 0, 0);&quot;&gt;PaymentMethod_Unknown&lt;/font&gt;&lt;/span&gt;" style="whiteSpace=wrap;html=1;rounded=0;" vertex="1" parent="1">
                    <mxGeometry x="-180" y="1230" width="270" height="60" as="geometry"/>
                </mxCell>
                <mxCell id="12" value="&lt;span style=&quot;font-family: &amp;quot;Segoe UI&amp;quot;, &amp;quot;Segoe UI Web (West European)&amp;quot;, &amp;quot;Segoe UI&amp;quot;, -apple-system, BlinkMacSystemFont, Roboto, &amp;quot;Helvetica Neue&amp;quot;, sans-serif; font-size: 14px; font-weight: 600; text-align: start; text-wrap-mode: nowrap;&quot;&gt;&lt;font style=&quot;color: rgb(255, 0, 0);&quot;&gt;ElectronicPayment&lt;/font&gt;&lt;/span&gt;" style="whiteSpace=wrap;html=1;rounded=0;fillColor=#f8cecc;strokeColor=#b85450;" vertex="1" parent="1">
                    <mxGeometry x="-110" y="770" width="270" height="60" as="geometry"/>
                </mxCell>
                <mxCell id="15" value="&lt;span style=&quot;font-family: &amp;quot;Segoe UI&amp;quot;, &amp;quot;Segoe UI Web (West European)&amp;quot;, &amp;quot;Segoe UI&amp;quot;, -apple-system, BlinkMacSystemFont, Roboto, &amp;quot;Helvetica Neue&amp;quot;, sans-serif; font-size: 14px; font-weight: 600; text-align: start; text-wrap-mode: nowrap;&quot;&gt;&lt;font style=&quot;color: rgb(255, 0, 0);&quot;&gt;TotalServices&lt;/font&gt;&lt;/span&gt;" style="whiteSpace=wrap;html=1;rounded=0;fillColor=#f8cecc;strokeColor=#b85450;" vertex="1" parent="1">
                    <mxGeometry x="-110" y="610" width="270" height="60" as="geometry"/>
                </mxCell>
                <mxCell id="16" value="&lt;span style=&quot;font-family: &amp;quot;Segoe UI&amp;quot;, &amp;quot;Segoe UI Web (West European)&amp;quot;, &amp;quot;Segoe UI&amp;quot;, -apple-system, BlinkMacSystemFont, Roboto, &amp;quot;Helvetica Neue&amp;quot;, sans-serif; font-size: 14px; font-weight: 600; text-align: start; text-wrap-mode: nowrap;&quot;&gt;&lt;font style=&quot;color: rgb(255, 0, 0);&quot;&gt;PremiumCustomer&lt;/font&gt;&lt;/span&gt;" style="whiteSpace=wrap;html=1;rounded=0;fillColor=#f8cecc;strokeColor=#b85450;" vertex="1" parent="1">
                    <mxGeometry x="-110" y="690" width="270" height="60" as="geometry"/>
                </mxCell>
                <mxCell id="17" value="&lt;span style=&quot;font-family: &amp;quot;Segoe UI&amp;quot;, &amp;quot;Segoe UI Web (West European)&amp;quot;, &amp;quot;Segoe UI&amp;quot;, -apple-system, BlinkMacSystemFont, Roboto, &amp;quot;Helvetica Neue&amp;quot;, sans-serif; font-size: 14px; font-weight: 600; text-align: start; text-wrap-mode: nowrap;&quot;&gt;&lt;font style=&quot;color: rgb(0, 0, 0);&quot;&gt;Contract&lt;/font&gt;&lt;/span&gt;&lt;br&gt;&lt;div style=&quot;text-align: start;&quot;&gt;{&#39;Month-to-Month&#39;: 1, &#39;One year&#39;: 2, &#39;Two year&#39;: 3}&lt;/div&gt;" style="rounded=0;whiteSpace=wrap;html=1;" vertex="1" parent="1">
                    <mxGeometry x="-550" y="390" width="280" height="100" as="geometry"/>
                </mxCell>
                <mxCell id="19" value="&lt;span style=&quot;font-family: &amp;quot;Segoe UI&amp;quot;, &amp;quot;Segoe UI Web (West European)&amp;quot;, &amp;quot;Segoe UI&amp;quot;, -apple-system, BlinkMacSystemFont, Roboto, &amp;quot;Helvetica Neue&amp;quot;, sans-serif; font-size: 14px; font-weight: 600; text-align: start; text-wrap-mode: nowrap;&quot;&gt;&lt;font style=&quot;color: rgb(0, 0, 0);&quot;&gt;ContractLevel&lt;/font&gt;&lt;/span&gt;" style="whiteSpace=wrap;html=1;rounded=0;" vertex="1" parent="1">
                    <mxGeometry x="-130" y="420" width="270" height="60" as="geometry"/>
                </mxCell>
                <mxCell id="20" value="&lt;span style=&quot;font-family: &amp;quot;Segoe UI&amp;quot;, &amp;quot;Segoe UI Web (West European)&amp;quot;, &amp;quot;Segoe UI&amp;quot;, -apple-system, BlinkMacSystemFont, Roboto, &amp;quot;Helvetica Neue&amp;quot;, sans-serif; font-size: 14px; font-weight: 600; text-align: start; text-wrap-mode: nowrap;&quot;&gt;&lt;font style=&quot;color: rgb(0, 0, 0);&quot;&gt;InternetService&lt;/font&gt;&lt;/span&gt;&lt;div&gt;&lt;div style=&quot;font-family: Consolas, &amp;quot;Courier New&amp;quot;, monospace; font-size: 14px; line-height: 19px; white-space: pre;&quot;&gt;&lt;span&gt;&lt;font style=&quot;color: rgb(0, 0, 0);&quot;&gt;&lt;span style=&quot;color: rgb(190, 198, 208);&quot;&gt;{&lt;/span&gt;&lt;span style=&quot;color: rgb(0, 168, 132);&quot;&gt;&#39;No&#39;&lt;/span&gt;&lt;span style=&quot;color: rgb(190, 198, 208);&quot;&gt;:&lt;/span&gt;&lt;span style=&quot;color: rgb(160, 172, 187);&quot;&gt; &lt;/span&gt;&lt;span style=&quot;color: rgb(212, 119, 12);&quot;&gt;1&lt;/span&gt;&lt;span style=&quot;color: rgb(190, 198, 208);&quot;&gt;,&lt;/span&gt;&lt;span style=&quot;color: rgb(160, 172, 187);&quot;&gt; &lt;/span&gt;&lt;span style=&quot;color: rgb(0, 168, 132);&quot;&gt;&#39;DSL&#39;&lt;/span&gt;&lt;span style=&quot;color: rgb(190, 198, 208);&quot;&gt;:&lt;/span&gt;&lt;span style=&quot;color: rgb(160, 172, 187);&quot;&gt; &lt;/span&gt;&lt;span style=&quot;color: rgb(212, 119, 12);&quot;&gt;2&lt;/span&gt;&lt;span style=&quot;color: rgb(190, 198, 208);&quot;&gt;,&lt;/span&gt;&lt;span style=&quot;color: rgb(160, 172, 187);&quot;&gt; &lt;/span&gt;&lt;span style=&quot;color: rgb(0, 168, 132);&quot;&gt;&#39;Fiber optic&#39;&lt;/span&gt;&lt;span style=&quot;color: rgb(190, 198, 208);&quot;&gt;:&lt;/span&gt;&lt;span style=&quot;color: rgb(160, 172, 187);&quot;&gt; &lt;/span&gt;&lt;span style=&quot;color: rgb(212, 119, 12);&quot;&gt;3&lt;/span&gt;&lt;span style=&quot;color: rgb(190, 198, 208);&quot;&gt;}&lt;/span&gt;&lt;/font&gt;&lt;/span&gt;&lt;/div&gt;&lt;/div&gt;" style="rounded=0;whiteSpace=wrap;html=1;" vertex="1" parent="1">
                    <mxGeometry x="-560" y="220" width="300" height="100" as="geometry"/>
                </mxCell>
                <mxCell id="21" value="&lt;span style=&quot;font-family: &amp;quot;Segoe UI&amp;quot;, &amp;quot;Segoe UI Web (West European)&amp;quot;, &amp;quot;Segoe UI&amp;quot;, -apple-system, BlinkMacSystemFont, Roboto, &amp;quot;Helvetica Neue&amp;quot;, sans-serif; font-size: 14px; font-weight: 600; text-align: start; text-wrap-mode: nowrap;&quot;&gt;&lt;font style=&quot;color: rgb(0, 0, 0);&quot;&gt;InternetServiceLevel&lt;/font&gt;&lt;/span&gt;" style="whiteSpace=wrap;html=1;rounded=0;" vertex="1" parent="1">
                    <mxGeometry x="-120" y="260" width="270" height="60" as="geometry"/>
                </mxCell>
                <mxCell id="22" value="&lt;span style=&quot;font-family: &amp;quot;Segoe UI&amp;quot;, &amp;quot;Segoe UI Web (West European)&amp;quot;, &amp;quot;Segoe UI&amp;quot;, -apple-system, BlinkMacSystemFont, Roboto, &amp;quot;Helvetica Neue&amp;quot;, sans-serif; font-size: 14px; font-weight: 600; text-align: start; text-wrap-mode: nowrap;&quot;&gt;&lt;font style=&quot;color: rgb(0, 0, 0);&quot;&gt;gender&lt;/font&gt;&lt;/span&gt;" style="rounded=0;whiteSpace=wrap;html=1;" vertex="1" parent="1">
                    <mxGeometry x="-550" y="50" width="300" height="100" as="geometry"/>
                </mxCell>
                <mxCell id="23" value="&lt;span style=&quot;font-family: &amp;quot;Segoe UI&amp;quot;, &amp;quot;Segoe UI Web (West European)&amp;quot;, &amp;quot;Segoe UI&amp;quot;, -apple-system, BlinkMacSystemFont, Roboto, &amp;quot;Helvetica Neue&amp;quot;, sans-serif; font-size: 14px; font-weight: 600; text-align: start; text-wrap-mode: nowrap;&quot;&gt;&lt;font style=&quot;color: rgb(0, 0, 0);&quot;&gt;gender_Male&lt;/font&gt;&lt;/span&gt;" style="whiteSpace=wrap;html=1;rounded=0;" vertex="1" parent="1">
                    <mxGeometry x="-140" width="270" height="60" as="geometry"/>
                </mxCell>
                <mxCell id="24" value="&lt;span style=&quot;font-family: &amp;quot;Segoe UI&amp;quot;, &amp;quot;Segoe UI Web (West European)&amp;quot;, &amp;quot;Segoe UI&amp;quot;, -apple-system, BlinkMacSystemFont, Roboto, &amp;quot;Helvetica Neue&amp;quot;, sans-serif; font-size: 14px; font-weight: 600; text-align: start; text-wrap-mode: nowrap;&quot;&gt;&lt;font style=&quot;color: rgb(0, 0, 0);&quot;&gt;gender_Unknown&lt;/font&gt;&lt;/span&gt;" style="whiteSpace=wrap;html=1;rounded=0;" vertex="1" parent="1">
                    <mxGeometry x="-140" y="70" width="270" height="60" as="geometry"/>
                </mxCell>
                <mxCell id="25" value="&lt;span style=&quot;font-family: &amp;quot;Segoe UI&amp;quot;, &amp;quot;Segoe UI Web (West European)&amp;quot;, &amp;quot;Segoe UI&amp;quot;, -apple-system, BlinkMacSystemFont, Roboto, &amp;quot;Helvetica Neue&amp;quot;, sans-serif; font-size: 14px; font-weight: 600; text-align: start; text-wrap-mode: nowrap;&quot;&gt;&lt;font style=&quot;color: rgb(0, 0, 0);&quot;&gt;gender_Female&lt;/font&gt;&lt;/span&gt;" style="whiteSpace=wrap;html=1;rounded=0;" vertex="1" parent="1">
                    <mxGeometry x="-140" y="140" width="270" height="60" as="geometry"/>
                </mxCell>
            </root>
        </mxGraphModel>
    </diagram>
</mxfile>